<!--?xml version="1.0" encoding="utf-8"?-->
<!-- Generator: Adobe Illustrator 19.1.1, SVG Export Plug-In . SVG Version: 6.00 Build 0)  -->
<svg version="1.1" id="_x31_0" xmlns="http://www.w3.org/2000/svg" xmlns:xlink="http://www.w3.org/1999/xlink" x="0px" y="0px" viewBox="0 0 512 512" style="width: 256px; height: 256px; opacity: 1;" xml:space="preserve">
<style type="text/css">
	.st0{fill:#374149;}
</style>
<g>
	<polygon class="st0" points="225.178,357.762 231.362,347.558 231.268,347.554 231.362,347.394 217.545,347.394 210.404,360.539 
		206.494,367.55 195.631,347.394 186.526,347.394 181.866,347.317 181.916,347.394 181.729,347.394 199.943,377.934 187.233,398.93 
		180.498,409.894 180.596,409.894 180.498,410.05 194.49,410.05 202.443,395.652 206.592,388.313 218.69,410.05 232.682,410.05 
		213.146,377.934 	" style="fill: rgb(75, 75, 75);"></polygon>
	<polygon class="st0" points="252.654,347.394 240.424,347.394 240.424,409.703 240.424,409.894 240.424,409.894 240.424,410.05 
		281.08,410.05 281.08,399.145 252.654,399.145 	" style="fill: rgb(75, 75, 75);"></polygon>
	<path class="st0" d="M326.666,378.371c-0.371-0.367-0.914-0.539-1.321-0.863c-0.672-0.531-1.39-1.004-2.164-1.414
		c-0.484-0.262-0.828-0.676-1.355-0.886c-1.879-0.766-4.254-1.352-7.129-1.766l-7.481-1.141c-1.351-0.18-2.48-0.469-3.386-0.883
		c-0.91-0.406-1.688-0.906-2.332-1.492c-0.649-0.648-1.102-1.351-1.367-2.109c-0.262-0.766-0.394-1.555-0.394-2.383
		c0-2.164,0.777-4.031,2.332-5.586c1.554-1.555,3.972-2.329,7.262-2.329c2.05,0,4.222,0.25,6.511,0.742
		c2.286,0.5,4.398,1.688,6.336,3.57l7.504-7.422l0.125-0.122l0,0l0.114-0.113c-2.699-2.641-5.66-4.524-8.886-5.633
		c-3.227-1.118-7.012-1.672-11.352-1.672c-3.402,0-6.457,0.469-9.152,1.406c-2.699,0.938-4.989,2.242-6.863,3.914
		c-1.879,1.672-3.317,3.672-4.313,5.985c-1,2.32-1.496,4.882-1.496,7.703c0,5.336,1.496,9.445,4.488,12.32
		c1.406,1.351,3.078,2.446,5.016,3.297c1.934,0.852,4.312,1.485,7.129,1.89l7.477,1.149c1.586,0.234,2.758,0.5,3.523,0.789
		c0.762,0.297,1.465,0.734,2.11,1.321c1.289,1.289,1.937,3.023,1.937,5.195c0,2.523-0.941,4.453-2.816,5.805
		c-1.879,1.351-4.664,2.023-8.359,2.023c-2.875,0-5.606-0.383-8.184-1.141c-2.582-0.766-4.871-2.141-6.863-4.141l-7.922,7.922
		c3.05,3.109,6.438,5.266,10.164,6.469c3.726,1.203,7.965,1.805,12.714,1.805c3.286,0,6.352-0.43,9.196-1.274
		c2.847-0.852,5.312-2.086,7.394-3.703c2.082-1.61,3.71-3.586,4.882-5.938c1.172-2.344,1.762-5.047,1.762-8.094
		c0-2.821-0.382-5.336-1.144-7.57C329.596,381.778,328.366,379.902,326.666,378.371z" style="fill: rgb(75, 75, 75);"></path>
	<rect x="298.397" y="164.371" class="st0" width="47.586" height="97.351" style="fill: rgb(75, 75, 75);"></rect>
	<rect x="232.205" y="94.805" class="st0" width="47.59" height="166.918" style="fill: rgb(75, 75, 75);"></rect>
	<polygon class="st0" points="213.607,145.996 166.322,145.996 166.178,145.996 166.178,145.996 166.018,145.996 166.018,261.722 
		213.607,261.722 	" style="fill: rgb(75, 75, 75);"></polygon>
	<polygon class="st0" points="166.178,278.598 166.178,278.598 166.018,278.598 166.018,295.469 345.982,295.469 345.982,278.598 
		166.729,278.598 	" style="fill: rgb(75, 75, 75);"></polygon>
	<path class="st0" d="M478.682,144.32v-0.082c-4.641-71.758-58.558-130.398-128.238-142c-7.922-1.359-16-2.078-24.32-2.156
		C325.721,0,325.162,0,324.76,0H111.24C68.041,0,32.92,35.121,32.92,78.32v355.282c0,43.199,35.121,78.398,78.32,78.398h289.52
		c43.203,0,78.32-35.199,78.32-78.398V154.32C479.08,150.961,479.002,147.602,478.682,144.32z M434.682,144.301v0.019
		c0.398,3.282,0.481,6.641,0.481,10v279.282c0,19.039-15.442,34.481-34.402,34.481H111.24c-18.961,0-34.398-15.442-34.398-34.481
		V78.32c0-19.038,15.438-34.402,34.398-34.402h214.883c8.398,0.082,16.48,1.122,24.32,3.043v48.16c0,27.118,22,49.118,49.118,49.118
		h25.523L434.682,144.301z" style="fill: rgb(75, 75, 75);"></path>
</g>
</svg>
